<svg aria-hidden="true" style="position: absolute; width: 0; height: 0; overflow: hidden;" version="1.1" xmlns="http://www.w3.org/2000/svg" xmlns:xlink="http://www.w3.org/1999/xlink">
<defs>
<symbol id="icon-eye" viewBox="0 0 32 32">
<path fill="none" style="" stroke-linejoin="round" stroke-linecap="round" stroke-miterlimit="4" stroke-width="2.3111" d="M1.333 16c0 0 5.333-10.667 14.667-10.667s14.667 10.667 14.667 10.667c0 0-5.333 10.667-14.667 10.667s-14.667-10.667-14.667-10.667z"></path>
<path fill="none" style="" stroke-linejoin="round" stroke-linecap="round" stroke-miterlimit="4" stroke-width="2.3111" d="M16 20c2.209 0 4-1.791 4-4s-1.791-4-4-4c-2.209 0-4 1.791-4 4s1.791 4 4 4z"></path>
</symbol>
<symbol id="icon-antiEye" viewBox="0 0 32 32">
<path fill="" style="" d="M21.467 17.733l-1.933-1.933c0.2-1.044-0.1-2.022-0.9-2.933s-1.833-1.267-3.1-1.067l-1.933-1.933c0.378-0.178 0.761-0.311 1.149-0.4s0.806-0.133 1.251-0.133c1.667 0 3.084 0.583 4.251 1.749s1.749 2.584 1.749 4.251c0 0.444-0.044 0.861-0.133 1.251s-0.222 0.772-0.4 1.149zM25.733 21.933l-1.933-1.867c0.844-0.644 1.595-1.35 2.251-2.117s1.216-1.638 1.683-2.616c-1.111-2.244-2.706-4.028-4.784-5.351s-4.394-1.983-6.949-1.983c-0.644 0-1.278 0.044-1.9 0.133s-1.233 0.222-1.833 0.4l-2.067-2.067c0.911-0.378 1.844-0.661 2.8-0.851s1.956-0.283 3-0.283c3.356 0 6.344 0.928 8.967 2.783s4.522 4.262 5.7 7.217c-0.511 1.311-1.183 2.528-2.016 3.651s-1.806 2.105-2.917 2.949zM26.4 30.133l-5.6-5.533c-0.778 0.244-1.561 0.428-2.349 0.551s-1.606 0.183-2.451 0.183c-3.356 0-6.344-0.928-8.967-2.783s-4.522-4.262-5.7-7.217c0.467-1.178 1.056-2.272 1.767-3.284s1.522-1.916 2.433-2.716l-3.667-3.733 1.867-1.867 24.533 24.533-1.867 1.867zM7.4 11.2c-0.644 0.578-1.233 1.211-1.767 1.9s-0.989 1.433-1.367 2.233c1.111 2.244 2.705 4.028 4.783 5.349s4.395 1.984 6.951 1.984c0.444 0 0.878-0.028 1.3-0.083s0.856-0.117 1.3-0.184l-1.2-1.267c-0.244 0.067-0.478 0.116-0.7 0.149s-0.456 0.051-0.7 0.051c-1.667 0-3.084-0.583-4.251-1.749s-1.749-2.584-1.749-4.251c0-0.244 0.016-0.478 0.049-0.7s0.084-0.456 0.151-0.7l-2.8-2.733z"></path>
</symbol>
</defs>
</svg>